{"asset":{"version":"2.0","generator":"Unity 6000.2.0b7 glTFast 6.13.0"},"nodes":[{"name":"typeMesh1_aiStandardSurface1_0","mesh":0},{"name":"typeMesh1","children":[0]},{"name":"pCube1_aiStandardSurface1_0","mesh":1},{"name":"pCube1","children":[2]},{"name":"group1","children":[1,3]},{"name":"RootNode","children":[4]},{"name":"caa86b1a25d74069b3db8e22e398c7cf.fbx","children":[5],"rotation":[0.7071068,0,0,0.7071068]},{"name":"magnet 1","children":[6],"rotation":[0.707106769,0,0,-0.7071067],"scale":[1,1.00000012,1.00000012]}],"buffers":[{"uri":"magnet 1.bin","byteLength":46512}],"bufferViews":[{"buffer":0,"byteLength":8352,"target":34963},{"buffer":0,"byteLength":1296,"byteOffset":8352,"target":34963},{"buffer":0,"byteLength":26880,"byteOffset":9648,"byteStride":40,"target":34962},{"buffer":0,"byteLength":5376,"byteOffset":36528,"byteStride":8,"target":34962},{"buffer":0,"byteLength":3840,"byteOffset":41904,"byteStride":40,"target":34962},{"buffer":0,"byteLength":768,"byteOffset":45744,"byteStride":8,"target":34962}],"accessors":[{"bufferView":2,"componentType":5126,"count":672,"type":"VEC3","max":[4.612981,10.60894,2.5],"min":[-4.16126251,-0.184848309,0]},{"bufferView":2,"componentType":5126,"count":672,"type":"VEC3","byteOffset":12},{"bufferView":2,"componentType":5126,"count":672,"type":"VEC4","byteOffset":24},{"bufferView":3,"componentType":5126,"count":672,"type":"VEC2"},{"bufferView":0,"componentType":5125,"count":2088,"type":"SCALAR"},{"bufferView":4,"componentType":5126,"count":96,"type":"VEC3","max":[-8.029425,10.8600845,1.80317223],"min":[-10.14501,1.83010912,0.8919867]},{"bufferView":4,"componentType":5126,"count":96,"type":"VEC3","byteOffset":12},{"bufferView":4,"componentType":5126,"count":96,"type":"VEC4","byteOffset":24},{"bufferView":5,"componentType":5126,"count":96,"type":"VEC2"},{"bufferView":1,"componentType":5125,"count":324,"type":"SCALAR"}],"images":[{"name":"magnet 1.png","uri":"magnet 1.png","mimeType":"image/png"},{"name":"magnet 1.png","uri":"magnet 1_0.png","mimeType":"image/png"},{"name":"magnet 1.png","uri":"magnet 1_1.png","mimeType":"image/png"}],"materials":[{"name":"aiStandardSurface1","pbrMetallicRoughness":{"metallicFactor":0.2084359,"roughnessFactor":0.5732463,"baseColorTexture":{"index":0},"metallicRoughnessTexture":{"index":1}},"normalTexture":{"index":2},"doubleSided":true}],"meshes":[{"name":"typeMesh1_aiStandardSurface1_0","primitives":[{"attributes":{"POSITION":0,"NORMAL":1,"TANGENT":2,"TEXCOORD_0":3},"indices":4,"material":0}]},{"name":"pCube1_aiStandardSurface1_0","primitives":[{"attributes":{"POSITION":5,"NORMAL":6,"TANGENT":7,"TEXCOORD_0":8},"indices":9,"material":0}]}],"samplers":[{"minFilter":9987}],"scene":0,"scenes":[{"name":"magnet 1","nodes":[7]}],"textures":[{"source":0,"sampler":0},{"source":1,"sampler":0},{"source":2,"sampler":0}]}