{
  "accessors": [
    {
      "bufferView": 2,
      "componentType": 5126,
      "count": 2687,
      "max": [
        8.625094413757324,
        1.7422161102294922,
        17.34708023071289
      ],
      "min": [
        -8.625295639038086,
        -0.008690237998962402,
        0.09689998626708984
      ],
      "type": "VEC3"
    },
    {
      "bufferView": 2,
      "byteOffset": 32244,
      "componentType": 5126,
      "count": 2687,
      "max": [
        1.0,
        1.0,
        0.9999915361404419
      ],
      "min": [
        -0.9999929070472717,
        -0.5297570824623108,
        -0.9999870657920837
      ],
      "type": "VEC3"
    },
    {
      "bufferView": 1,
      "componentType": 5126,
      "count": 2687,
      "max": [
        11.45406723022461,
        9.655889511108398
      ],
      "min": [
        -2.0739035606384277,
        -4.26825475692749
      ],
      "type": "VEC2"
    },
    {
      "bufferView": 0,
      "componentType": 5125,
      "count": 4362,
      "type": "SCALAR"
    }
  ],
  "asset": {
    "extras": {
      "author": "MozillaHubs (https://sketchfab.com/mozillareality)",
      "license": "CC-BY-4.0 (http://creativecommons.org/licenses/by/4.0/)",
      "source": "https://sketchfab.com/3d-models/skyline-cutout-city-large-b00abd35578e4f628f4bcd3625ce5951",
      "title": "Skyline Cutout - City - large"
    },
    "generator": "Sketchfab-12.66.0",
    "version": "2.0"
  },
  "bufferViews": [
    {
      "buffer": 0,
      "byteLength": 17448,
      "name": "floatBufferViews",
      "target": 34963
    },
    {
      "buffer": 0,
      "byteLength": 21496,
      "byteOffset": 17448,
      "byteStride": 8,
      "name": "floatBufferViews",
      "target": 34962
    },
    {
      "buffer": 0,
      "byteLength": 64488,
      "byteOffset": 38944,
      "byteStride": 12,
      "name": "floatBufferViews",
      "target": 34962
    }
  ],
  "buffers": [
    {
      "byteLength": 103432,
      "uri": "scene.bin"
    }
  ],
  "materials": [
    {
      "name": "lambert2",
      "pbrMetallicRoughness": {
        "baseColorFactor": [
          0.0,
          0.0,
          0.0,
          1.0
        ],
        "metallicFactor": 0.0
      }
    }
  ],
  "meshes": [
    {
      "name": "SkylineCutoutLarge_lambert2_0",
      "primitives": [
        {
          "attributes": {
            "NORMAL": 1,
            "POSITION": 0,
            "TEXCOORD_0": 2
          },
          "indices": 3,
          "material": 0,
          "mode": 4
        }
      ]
    }
  ],
  "nodes": [
    {
      "children": [
        1
      ],
      "matrix": [
        0.009999999776482582,
        0.0,
        0.0,
        0.0,
        0.0,
        2.2204459996194763e-18,
        -0.009999999776482582,
        0.0,
        0.0,
        0.009999999776482582,
        2.2204459996194763e-18,
        0.0,
        0.0,
        0.0,
        0.0,
        1.0
      ],
      "name": "Sketchfab_model"
    },
    {
      "children": [
        2
      ],
      "matrix": [
        1.0,
        0.0,
        0.0,
        0.0,
        0.0,
        0.0,
        1.0,
        0.0,
        0.0,
        -1.0,
        0.0,
        0.0,
        0.0,
        0.0,
        0.0,
        1.0
      ],
      "name": "ea95d5a7aca545e281206bbe0bc3f3e8.fbx"
    },
    {
      "children": [
        3
      ],
      "name": "RootNode"
    },
    {
      "children": [
        4
      ],
      "matrix": [
        500.0,
        0.0,
        0.0,
        0.0,
        0.0,
        500.0,
        0.0,
        0.0,
        0.0,
        0.0,
        500.0,
        0.0,
        0.0,
        0.0,
        -4360.9951171875,
        1.0
      ],
      "name": "SkylineCutoutLarge"
    },
    {
      "mesh": 0,
      "name": "SkylineCutoutLarge_lambert2_0"
    }
  ],
  "scene": 0,
  "scenes": [
    {
      "name": "Sketchfab_Scene",
      "nodes": [
        0
      ]
    }
  ]
}
