{"asset":{"version":"2.0","generator":"Unity 6000.2.0b7 glTFast 6.13.0"},"nodes":[{"name":"SkylineCutoutLarge_lambert2_0","mesh":0},{"name":"SkylineCutoutLarge","children":[0],"translation":[0,0,-4360.995],"scale":[500,500,500]},{"name":"RootNode","children":[1]},{"name":"ea95d5a7aca545e281206bbe0bc3f3e8.fbx","children":[2],"rotation":[0.7071068,0,0,0.7071068]},{"name":"scene","children":[3],"rotation":[0.707106769,0,0,-0.7071067],"scale":[0.01,0.0100000007,0.0100000007]}],"buffers":[{"uri":"scene1.bin","byteLength":103432}],"bufferViews":[{"buffer":0,"byteLength":17448,"target":34963},{"buffer":0,"byteLength":64488,"byteOffset":17448,"byteStride":24,"target":34962},{"buffer":0,"byteLength":21496,"byteOffset":81936,"byteStride":8,"target":34962}],"accessors":[{"bufferView":1,"componentType":5126,"count":2687,"type":"VEC3","max":[8.625094,1.74221611,17.34708],"min":[-8.625295,-0.008690238,0.0968999863]},{"bufferView":1,"componentType":5126,"count":2687,"type":"VEC3","byteOffset":12},{"bufferView":2,"componentType":5126,"count":2687,"type":"VEC2"},{"bufferView":0,"componentType":5125,"count":4362,"type":"SCALAR"}],"materials":[{"name":"lambert2","pbrMetallicRoughness":{"baseColorFactor":[0,0,0,1],"metallicFactor":0}}],"meshes":[{"name":"SkylineCutoutLarge_lambert2_0","primitives":[{"attributes":{"POSITION":0,"NORMAL":1,"TEXCOORD_0":2},"indices":3,"material":0}]}],"scene":0,"scenes":[{"name":"scene","nodes":[4]}]}