{"asset":{"version":"2.0","generator":"Unity 6000.2.0b7 glTFast 6.13.0"},"nodes":[{"name":"defaultMaterial","mesh":0},{"name":"Cube","children":[0]},{"name":"Collada visual scene group","children":[1],"rotation":[0.7071068,0,0,0.7071068]},{"name":"low_poly_road_barrier","children":[2],"rotation":[0.707106769,0,0,-0.7071067],"scale":[1,1.00000012,1.00000012]}],"buffers":[{"uri":"low_poly_road_barrier.bin","byteLength":27816}],"bufferViews":[{"buffer":0,"byteLength":7608,"target":34963},{"buffer":0,"byteLength":16840,"byteOffset":7608,"byteStride":40,"target":34962},{"buffer":0,"byteLength":3368,"byteOffset":24448,"byteStride":8,"target":34962}],"accessors":[{"bufferView":1,"componentType":5126,"count":421,"type":"VEC3","max":[0.338672,0.345721,1],"min":[-0.338672,-0.345721,-1]},{"bufferView":1,"componentType":5126,"count":421,"type":"VEC3","byteOffset":12},{"bufferView":1,"componentType":5126,"count":421,"type":"VEC4","byteOffset":24},{"bufferView":2,"componentType":5126,"count":421,"type":"VEC2"},{"bufferView":0,"componentType":5125,"count":1902,"type":"SCALAR"}],"images":[{"name":"low_poly_road_barrier.jpg","uri":"low_poly_road_barrier.jpg","mimeType":"image/jpeg"},{"name":"low_poly_road_barrier.png","uri":"low_poly_road_barrier.png","mimeType":"image/png"},{"name":"low_poly_road_barrier.png","uri":"low_poly_road_barrier_0.png","mimeType":"image/png"}],"materials":[{"name":"None","pbrMetallicRoughness":{"metallicFactor":0.109999962,"baseColorTexture":{"index":0},"metallicRoughnessTexture":{"index":1}},"normalTexture":{"index":2},"occlusionTexture":{"index":1},"doubleSided":true}],"meshes":[{"name":"defaultMaterial","primitives":[{"attributes":{"POSITION":0,"NORMAL":1,"TANGENT":2,"TEXCOORD_0":3},"indices":4,"material":0}]}],"samplers":[{"minFilter":9987}],"scene":0,"scenes":[{"name":"low_poly_road_barrier","nodes":[3]}],"textures":[{"source":0,"sampler":0},{"source":1,"sampler":0},{"source":2,"sampler":0}]}