{"asset":{"version":"2.0","generator":"Unity 6000.2.0b7 glTFast 6.13.0"},"nodes":[{"name":"ramp_02_lambert2_0","mesh":0},{"name":"ramp_02","children":[0]},{"name":"Bollard_lambert2_0","mesh":1},{"name":"Bollard","children":[2]},{"name":"Tire_lambert2_0","mesh":2},{"name":"Tire","children":[4]},{"name":"Barrier_Plastic_lambert2_0","mesh":3},{"name":"Barrier_Plastic","children":[6]},{"name":"kw_barriers_stand_white__1_2_lambert2_0","mesh":4},{"name":"kw_barriers_stand_white__1_2","children":[8],"translation":[60.7574463,330.9268,-207.066345]},{"name":"kw_barriers_stand_white2_lambert2_0","mesh":5},{"name":"kw_barriers_stand_white2","children":[10],"translation":[60.7574463,330.9268,-207.066345]},{"name":"kw_barriers_rod2_lambert2_0","mesh":6},{"name":"kw_barriers_rod2","children":[12],"translation":[60.7574463,330.9268,-207.066345]},{"name":"kw_barriers_stand_white__1_1_lambert2_0","mesh":7},{"name":"kw_barriers_stand_white__1_1","children":[14],"translation":[60.7574463,330.9268,-207.066345]},{"name":"kw_barriers_rod1_lambert2_0","mesh":8},{"name":"kw_barriers_rod1","children":[16],"translation":[60.7574463,330.9268,-207.066345]},{"name":"kw_barriers_stand_white1_lambert2_0","mesh":9},{"name":"kw_barriers_stand_white1","children":[18],"translation":[60.7574463,330.9268,-207.066345]},{"name":"kw_barriers_stand_white__1__lambert2_0","mesh":10},{"name":"kw_barriers_stand_white__1_","children":[20],"translation":[60.7574463,330.9268,-207.066345]},{"name":"kw_barriers_stand_white_lambert2_0","mesh":11},{"name":"kw_barriers_stand_white","children":[22],"translation":[60.7574463,330.9268,-207.066345]},{"name":"kw_barriers_rod_lambert2_0","mesh":12},{"name":"kw_barriers_rod","children":[24],"translation":[60.7574463,330.9268,-207.066345]},{"name":"Cylinder_lambert2_0","mesh":13},{"name":"Cylinder","children":[26]},{"name":"Barrel1__4__lambert2_0","mesh":14},{"name":"Barrel1__4_","children":[28]},{"name":"Cube_001_lambert2_0","mesh":15},{"name":"Cube_001","children":[30]},{"name":"objPylon__44__lambert2_0","mesh":16},{"name":"objPylon__44_","children":[32]},{"name":"side_bar__12__lambert2_0","mesh":17},{"name":"side_bar__12_","children":[34]},{"name":"Coin__1__lambert2_0","mesh":18},{"name":"Coin__1_","children":[36]},{"name":"_2__9__lambert2_0","mesh":19},{"name":"_2__9_","children":[38]},{"name":"Barrier_lambert2_0","mesh":20},{"name":"Barrier","children":[40]},{"name":"ramp_04_lambert2_0","mesh":21},{"name":"ramp_04","children":[42]},{"name":"dhool_lambert2_0","mesh":22},{"name":"dhool","children":[44]},{"name":"cone_02_lambert2_0","mesh":23},{"name":"cone_02","children":[46]},{"name":"cone_04_lambert2_0","mesh":24},{"name":"cone_04","children":[48]},{"name":"crate_02_lambert2_0","mesh":25},{"name":"crate_02","children":[50]},{"name":"Barricada_Concreto__5_lambert2_0","mesh":26},{"name":"Barricada_Concreto__5","children":[52]},{"name":"Barricada_Concreto__6_lambert2_0","mesh":27},{"name":"Barricada_Concreto__6","children":[54]},{"name":"Barricada_Concreto__7_lambert2_0","mesh":28},{"name":"Barricada_Concreto__7","children":[56]},{"name":"Barricada_Concreto__8_lambert2_0","mesh":29},{"name":"Barricada_Concreto__8","children":[58]},{"name":"ramp_05_lambert2_0","mesh":30},{"name":"ramp_05","children":[60]},{"name":"ramp_06_lambert2_0","mesh":31},{"name":"ramp_06","children":[62]},{"name":"ramp_07_lambert2_0","mesh":32},{"name":"ramp_07","children":[64]},{"name":"ramp_08_lambert2_0","mesh":33},{"name":"ramp_08","children":[66]},{"name":"ramp_09_lambert2_0","mesh":34},{"name":"ramp_09","children":[68]},{"name":"Barrel1__4_1_lambert2_0","mesh":35},{"name":"Barrel1__4_1","children":[70]},{"name":"Barrel1__4_2_lambert2_0","mesh":36},{"name":"Barrel1__4_2","children":[72]},{"name":"Barrel1__4_3_lambert2_0","mesh":37},{"name":"Barrel1__4_3","children":[74]},{"name":"Barrel1__4_4_lambert2_0","mesh":38},{"name":"Barrel1__4_4","children":[76]},{"name":"crate_03_lambert2_0","mesh":39},{"name":"crate_03","children":[78]},{"name":"crate_04_lambert2_0","mesh":40},{"name":"crate_04","children":[80]},{"name":"crate_05_lambert2_0","mesh":41},{"name":"crate_05","children":[82]},{"name":"ramp_012_lambert2_0","mesh":42},{"name":"ramp_012","children":[84]},{"name":"ramp_010_lambert2_0","mesh":43},{"name":"ramp_010","children":[86]},{"name":"ramp_011_lambert2_0","mesh":44},{"name":"ramp_011","children":[88]},{"name":"dhool1_lambert2_0","mesh":45},{"name":"dhool1","children":[90]},{"name":"objPylon__44_1_lambert2_0","mesh":46},{"name":"objPylon__44_1","children":[92]},{"name":"_2__9_1_lambert2_0","mesh":47},{"name":"_2__9_1","children":[94]},{"name":"cone_05_lambert2_0","mesh":48},{"name":"cone_05","children":[96]},{"name":"CONTAINER_YELLOW_lambert2_0","mesh":49},{"name":"CONTAINER_YELLOW","children":[98]},{"name":"CONTAINER_ORANGE_lambert2_0","mesh":50},{"name":"CONTAINER_ORANGE","children":[100]},{"name":"CONTAINER_BLUE_lambert2_0","mesh":51},{"name":"CONTAINER_BLUE","children":[102]},{"name":"CONTAINER_GREEN_lambert2_0","mesh":52},{"name":"CONTAINER_GREEN","children":[104]},{"name":"SPEEDBRKR_1_lambert2_0","mesh":53},{"name":"SPEEDBRKR_1","children":[106]},{"name":"SPEEDBRKR_2_lambert2_0","mesh":54},{"name":"SPEEDBRKR_2","children":[108]},{"name":"SPEEDBRKR_3_lambert2_0","mesh":55},{"name":"SPEEDBRKR_3","children":[110]},{"name":"SPEEDBRKR_4_lambert2_0","mesh":56},{"name":"SPEEDBRKR_4","children":[112]},{"name":"OBS_UP_BACE_lambert2_0","mesh":57},{"name":"OBS_UP_BACE","children":[114]},{"name":"OBE_UP_lambert2_0","mesh":58},{"name":"OBE_UP","children":[116]},{"name":"RootNode","children":[1,3,5,7,9,11,13,15,17,19,21,23,25,27,29,31,33,35,37,39,41,43,45,47,49,51,53,55,57,59,61,63,65,67,69,71,73,75,77,79,81,83,85,87,89,91,93,95,97,99,101,103,105,107,109,111,113,115,117]},{"name":"ALL_RAMPS_PROPS.fbx","children":[118],"rotation":[0.7071068,0,0,0.7071068],"scale":[0.01,0.01,0.01]},{"name":"assets","children":[119],"rotation":[0.707106769,0,0,-0.7071067],"scale":[1,1.00000012,1.00000012]}],"buffers":[{"uri":"assets.bin","byteLength":265872}],"bufferViews":[{"buffer":0,"byteLength":192,"target":34963},{"buffer":0,"byteLength":264,"byteOffset":192,"target":34963},{"buffer":0,"byteLength":336,"byteOffset":456,"target":34963},{"buffer":0,"byteLength":1320,"byteOffset":792,"target":34963},{"buffer":0,"byteLength":1200,"byteOffset":2112,"target":34963},{"buffer":0,"byteLength":2112,"byteOffset":3312,"target":34963},{"buffer":0,"byteLength":2112,"byteOffset":5424,"target":34963},{"buffer":0,"byteLength":144,"byteOffset":7536,"target":34963},{"buffer":0,"byteLength":2112,"byteOffset":7680,"target":34963},{"buffer":0,"byteLength":144,"byteOffset":9792,"target":34963},{"buffer":0,"byteLength":2112,"byteOffset":9936,"target":34963},{"buffer":0,"byteLength":2112,"byteOffset":12048,"target":34963},{"buffer":0,"byteLength":2112,"byteOffset":14160,"target":34963},{"buffer":0,"byteLength":144,"byteOffset":16272,"target":34963},{"buffer":0,"byteLength":480,"byteOffset":16416,"target":34963},{"buffer":0,"byteLength":2592,"byteOffset":16896,"target":34963},{"buffer":0,"byteLength":1248,"byteOffset":19488,"target":34963},{"buffer":0,"byteLength":5376,"byteOffset":20736,"target":34963},{"buffer":0,"byteLength":144,"byteOffset":26112,"target":34963},{"buffer":0,"byteLength":528,"byteOffset":26256,"target":34963},{"buffer":0,"byteLength":144,"byteOffset":26784,"target":34963},{"buffer":0,"byteLength":312,"byteOffset":26928,"target":34963},{"buffer":0,"byteLength":192,"byteOffset":27240,"target":34963},{"buffer":0,"byteLength":1092,"byteOffset":27432,"target":34963},{"buffer":0,"byteLength":672,"byteOffset":28524,"target":34963},{"buffer":0,"byteLength":360,"byteOffset":29196,"target":34963},{"buffer":0,"byteLength":144,"byteOffset":29556,"target":34963},{"buffer":0,"byteLength":528,"byteOffset":29700,"target":34963},{"buffer":0,"byteLength":528,"byteOffset":30228,"target":34963},{"buffer":0,"byteLength":528,"byteOffset":30756,"target":34963},{"buffer":0,"byteLength":528,"byteOffset":31284,"target":34963},{"buffer":0,"byteLength":192,"byteOffset":31812,"target":34963},{"buffer":0,"byteLength":192,"byteOffset":32004,"target":34963},{"buffer":0,"byteLength":192,"byteOffset":32196,"target":34963},{"buffer":0,"byteLength":192,"byteOffset":32388,"target":34963},{"buffer":0,"byteLength":2592,"byteOffset":32580,"target":34963},{"buffer":0,"byteLength":2592,"byteOffset":35172,"target":34963},{"buffer":0,"byteLength":2592,"byteOffset":37764,"target":34963},{"buffer":0,"byteLength":2592,"byteOffset":40356,"target":34963},{"buffer":0,"byteLength":144,"byteOffset":42948,"target":34963},{"buffer":0,"byteLength":144,"byteOffset":43092,"target":34963},{"buffer":0,"byteLength":144,"byteOffset":43236,"target":34963},{"buffer":0,"byteLength":264,"byteOffset":43380,"target":34963},{"buffer":0,"byteLength":264,"byteOffset":43644,"target":34963},{"buffer":0,"byteLength":264,"byteOffset":43908,"target":34963},{"buffer":0,"byteLength":1092,"byteOffset":44172,"target":34963},{"buffer":0,"byteLength":5376,"byteOffset":45264,"target":34963},{"buffer":0,"byteLength":144,"byteOffset":50640,"target":34963},{"buffer":0,"byteLength":672,"byteOffset":50784,"target":34963},{"buffer":0,"byteLength":144,"byteOffset":51456,"target":34963},{"buffer":0,"byteLength":144,"byteOffset":51600,"target":34963},{"buffer":0,"byteLength":144,"byteOffset":51744,"target":34963},{"buffer":0,"byteLength":144,"byteOffset":51888,"target":34963},{"buffer":0,"byteLength":480,"byteOffset":52032,"target":34963},{"buffer":0,"byteLength":480,"byteOffset":52512,"target":34963},{"buffer":0,"byteLength":480,"byteOffset":52992,"target":34963},{"buffer":0,"byteLength":480,"byteOffset":53472,"target":34963},{"buffer":0,"byteLength":960,"byteOffset":53952,"target":34963},{"buffer":0,"byteLength":1656,"byteOffset":54912,"target":34963},{"buffer":0,"byteLength":5568,"byteOffset":56568,"byteStride":24,"target":34962},{"buffer":0,"byteLength":1856,"byteOffset":62136,"byteStride":8,"target":34962},{"buffer":0,"byteLength":1200,"byteOffset":63992,"byteStride":24,"target":34962},{"buffer":0,"byteLength":400,"byteOffset":65192,"byteStride":8,"target":34962},{"buffer":0,"byteLength":11040,"byteOffset":65592,"byteStride":24,"target":34962},{"buffer":0,"byteLength":3680,"byteOffset":76632,"byteStride":8,"target":34962},{"buffer":0,"byteLength":576,"byteOffset":80312,"byteStride":24,"target":34962},{"buffer":0,"byteLength":192,"byteOffset":80888,"byteStride":8,"target":34962},{"buffer":0,"byteLength":1296,"byteOffset":81080,"byteStride":24,"target":34962},{"buffer":0,"byteLength":432,"byteOffset":82376,"byteStride":8,"target":34962},{"buffer":0,"byteLength":2496,"byteOffset":82808,"byteStride":24,"target":34962},{"buffer":0,"byteLength":832,"byteOffset":85304,"byteStride":8,"target":34962},{"buffer":0,"byteLength":3792,"byteOffset":86136,"byteStride":24,"target":34962},{"buffer":0,"byteLength":1264,"byteOffset":89928,"byteStride":8,"target":34962},{"buffer":0,"byteLength":5568,"byteOffset":91192,"byteStride":24,"target":34962},{"buffer":0,"byteLength":1856,"byteOffset":96760,"byteStride":8,"target":34962},{"buffer":0,"byteLength":5568,"byteOffset":98616,"byteStride":24,"target":34962},{"buffer":0,"byteLength":1856,"byteOffset":104184,"byteStride":8,"target":34962},{"buffer":0,"byteLength":576,"byteOffset":106040,"byteStride":24,"target":34962},{"buffer":0,"byteLength":192,"byteOffset":106616,"byteStride":8,"target":34962},{"buffer":0,"byteLength":5568,"byteOffset":106808,"byteStride":24,"target":34962},{"buffer":0,"byteLength":1856,"byteOffset":112376,"byteStride":8,"target":34962},{"buffer":0,"byteLength":576,"byteOffset":114232,"byteStride":24,"target":34962},{"buffer":0,"byteLength":192,"byteOffset":114808,"byteStride":8,"target":34962},{"buffer":0,"byteLength":5568,"byteOffset":115000,"byteStride":24,"target":34962},{"buffer":0,"byteLength":1856,"byteOffset":120568,"byteStride":8,"target":34962},{"buffer":0,"byteLength":5568,"byteOffset":122424,"byteStride":24,"target":34962},{"buffer":0,"byteLength":1856,"byteOffset":127992,"byteStride":8,"target":34962},{"buffer":0,"byteLength":576,"byteOffset":129848,"byteStride":24,"target":34962},{"buffer":0,"byteLength":192,"byteOffset":130424,"byteStride":8,"target":34962},{"buffer":0,"byteLength":1536,"byteOffset":130616,"byteStride":24,"target":34962},{"buffer":0,"byteLength":512,"byteOffset":132152,"byteStride":8,"target":34962},{"buffer":0,"byteLength":3072,"byteOffset":132664,"byteStride":24,"target":34962},{"buffer":0,"byteLength":1024,"byteOffset":135736,"byteStride":8,"target":34962},{"buffer":0,"byteLength":11040,"byteOffset":136760,"byteStride":24,"target":34962},{"buffer":0,"byteLength":3680,"byteOffset":147800,"byteStride":8,"target":34962},{"buffer":0,"byteLength":1056,"byteOffset":151480,"byteStride":24,"target":34962},{"buffer":0,"byteLength":704,"byteOffset":152536,"byteStride":16,"target":34962},{"buffer":0,"byteLength":576,"byteOffset":153240,"byteStride":24,"target":34962},{"buffer":0,"byteLength":384,"byteOffset":153816,"byteStride":16,"target":34962},{"buffer":0,"byteLength":1728,"byteOffset":154200,"byteStride":24,"target":34962},{"buffer":0,"byteLength":576,"byteOffset":155928,"byteStride":8,"target":34962},{"buffer":0,"byteLength":1728,"byteOffset":156504,"byteStride":24,"target":34962},{"buffer":0,"byteLength":576,"byteOffset":158232,"byteStride":8,"target":34962},{"buffer":0,"byteLength":1728,"byteOffset":158808,"byteStride":24,"target":34962},{"buffer":0,"byteLength":576,"byteOffset":160536,"byteStride":8,"target":34962},{"buffer":0,"byteLength":1728,"byteOffset":161112,"byteStride":24,"target":34962},{"buffer":0,"byteLength":576,"byteOffset":162840,"byteStride":8,"target":34962},{"buffer":0,"byteLength":624,"byteOffset":163416,"byteStride":24,"target":34962},{"buffer":0,"byteLength":416,"byteOffset":164040,"byteStride":16,"target":34962},{"buffer":0,"byteLength":6096,"byteOffset":164456,"byteStride":24,"target":34962},{"buffer":0,"byteLength":4064,"byteOffset":170552,"byteStride":16,"target":34962},{"buffer":0,"byteLength":960,"byteOffset":174616,"byteStride":24,"target":34962},{"buffer":0,"byteLength":640,"byteOffset":175576,"byteStride":16,"target":34962},{"buffer":0,"byteLength":576,"byteOffset":176216,"byteStride":24,"target":34962},{"buffer":0,"byteLength":192,"byteOffset":176792,"byteStride":8,"target":34962},{"buffer":0,"byteLength":576,"byteOffset":176984,"byteStride":24,"target":34962},{"buffer":0,"byteLength":192,"byteOffset":177560,"byteStride":8,"target":34962},{"buffer":0,"byteLength":576,"byteOffset":177752,"byteStride":24,"target":34962},{"buffer":0,"byteLength":192,"byteOffset":178328,"byteStride":8,"target":34962},{"buffer":0,"byteLength":1488,"byteOffset":178520,"byteStride":24,"target":34962},{"buffer":0,"byteLength":496,"byteOffset":180008,"byteStride":8,"target":34962},{"buffer":0,"byteLength":1488,"byteOffset":180504,"byteStride":24,"target":34962},{"buffer":0,"byteLength":496,"byteOffset":181992,"byteStride":8,"target":34962},{"buffer":0,"byteLength":1488,"byteOffset":182488,"byteStride":24,"target":34962},{"buffer":0,"byteLength":496,"byteOffset":183976,"byteStride":8,"target":34962},{"buffer":0,"byteLength":1488,"byteOffset":184472,"byteStride":24,"target":34962},{"buffer":0,"byteLength":496,"byteOffset":185960,"byteStride":8,"target":34962},{"buffer":0,"byteLength":2016,"byteOffset":186456,"byteStride":24,"target":34962},{"buffer":0,"byteLength":672,"byteOffset":188472,"byteStride":8,"target":34962},{"buffer":0,"byteLength":3456,"byteOffset":189144,"byteStride":24,"target":34962},{"buffer":0,"byteLength":1152,"byteOffset":192600,"byteStride":8,"target":34962},{"buffer":0,"byteLength":960,"byteOffset":193752,"byteStride":24,"target":34962},{"buffer":0,"byteLength":640,"byteOffset":194712,"byteStride":16,"target":34962},{"buffer":0,"byteLength":6096,"byteOffset":195352,"byteStride":24,"target":34962},{"buffer":0,"byteLength":4064,"byteOffset":201448,"byteStride":16,"target":34962},{"buffer":0,"byteLength":576,"byteOffset":205512,"byteStride":24,"target":34962},{"buffer":0,"byteLength":384,"byteOffset":206088,"byteStride":16,"target":34962},{"buffer":0,"byteLength":576,"byteOffset":206472,"byteStride":24,"target":34962},{"buffer":0,"byteLength":384,"byteOffset":207048,"byteStride":16,"target":34962},{"buffer":0,"byteLength":624,"byteOffset":207432,"byteStride":24,"target":34962},{"buffer":0,"byteLength":416,"byteOffset":208056,"byteStride":16,"target":34962},{"buffer":0,"byteLength":1872,"byteOffset":208472,"byteStride":24,"target":34962},{"buffer":0,"byteLength":1248,"byteOffset":210344,"byteStride":16,"target":34962},{"buffer":0,"byteLength":2232,"byteOffset":211592,"byteStride":24,"target":34962},{"buffer":0,"byteLength":1488,"byteOffset":213824,"byteStride":16,"target":34962},{"buffer":0,"byteLength":1224,"byteOffset":215312,"byteStride":24,"target":34962},{"buffer":0,"byteLength":816,"byteOffset":216536,"byteStride":16,"target":34962},{"buffer":0,"byteLength":624,"byteOffset":217352,"byteStride":24,"target":34962},{"buffer":0,"byteLength":416,"byteOffset":217976,"byteStride":16,"target":34962},{"buffer":0,"byteLength":624,"byteOffset":218392,"byteStride":24,"target":34962},{"buffer":0,"byteLength":416,"byteOffset":219016,"byteStride":16,"target":34962},{"buffer":0,"byteLength":624,"byteOffset":219432,"byteStride":24,"target":34962},{"buffer":0,"byteLength":416,"byteOffset":220056,"byteStride":16,"target":34962},{"buffer":0,"byteLength":624,"byteOffset":220472,"byteStride":24,"target":34962},{"buffer":0,"byteLength":416,"byteOffset":221096,"byteStride":16,"target":34962},{"buffer":0,"byteLength":6096,"byteOffset":221512,"byteStride":24,"target":34962},{"buffer":0,"byteLength":4064,"byteOffset":227608,"byteStride":16,"target":34962},{"buffer":0,"byteLength":6096,"byteOffset":231672,"byteStride":24,"target":34962},{"buffer":0,"byteLength":4064,"byteOffset":237768,"byteStride":16,"target":34962},{"buffer":0,"byteLength":6096,"byteOffset":241832,"byteStride":24,"target":34962},{"buffer":0,"byteLength":4064,"byteOffset":247928,"byteStride":16,"target":34962},{"buffer":0,"byteLength":576,"byteOffset":251992,"byteStride":24,"target":34962},{"buffer":0,"byteLength":384,"byteOffset":252568,"byteStride":16,"target":34962},{"buffer":0,"byteLength":576,"byteOffset":252952,"byteStride":24,"target":34962},{"buffer":0,"byteLength":384,"byteOffset":253528,"byteStride":16,"target":34962},{"buffer":0,"byteLength":576,"byteOffset":253912,"byteStride":24,"target":34962},{"buffer":0,"byteLength":384,"byteOffset":254488,"byteStride":16,"target":34962},{"buffer":0,"byteLength":960,"byteOffset":254872,"byteStride":24,"target":34962},{"buffer":0,"byteLength":640,"byteOffset":255832,"byteStride":16,"target":34962},{"buffer":0,"byteLength":960,"byteOffset":256472,"byteStride":24,"target":34962},{"buffer":0,"byteLength":640,"byteOffset":257432,"byteStride":16,"target":34962},{"buffer":0,"byteLength":1872,"byteOffset":258072,"byteStride":24,"target":34962},{"buffer":0,"byteLength":1248,"byteOffset":259944,"byteStride":16,"target":34962},{"buffer":0,"byteLength":576,"byteOffset":261192,"byteStride":24,"target":34962},{"buffer":0,"byteLength":384,"byteOffset":261768,"byteStride":16,"target":34962},{"buffer":0,"byteLength":2232,"byteOffset":262152,"byteStride":24,"target":34962},{"buffer":0,"byteLength":1488,"byteOffset":264384,"byteStride":16,"target":34962}],"accessors":[{"bufferView":131,"componentType":5126,"count":40,"type":"VEC3","max":[941.284668,570.4623,-1264.93872],"min":[684.2986,567.0875,-1714.9397]},{"bufferView":131,"componentType":5126,"count":40,"type":"VEC3","byteOffset":12},{"bufferView":132,"componentType":5126,"count":40,"type":"VEC2"},{"bufferView":132,"componentType":5126,"count":40,"type":"VEC2","byteOffset":8},{"bufferView":1,"componentType":5125,"count":66,"type":"SCALAR"},{"bufferView":67,"componentType":5126,"count":54,"type":"VEC3","max":[2149.25635,640.0917,-75.85182],"min":[2143.59961,543.12146,-97.17705]},{"bufferView":67,"componentType":5126,"count":54,"type":"VEC3","byteOffset":12},{"bufferView":68,"componentType":5126,"count":54,"type":"VEC2"},{"bufferView":2,"componentType":5125,"count":84,"type":"SCALAR"},{"bufferView":69,"componentType":5126,"count":104,"type":"VEC3","max":[2241.30957,578.102234,-77.0807953],"min":[2191.81836,558.102234,-126.06813]},{"bufferView":69,"componentType":5126,"count":104,"type":"VEC3","byteOffset":12},{"bufferView":70,"componentType":5126,"count":104,"type":"VEC2"},{"bufferView":3,"componentType":5125,"count":330,"type":"SCALAR"},{"bufferView":71,"componentType":5126,"count":158,"type":"VEC3","max":[2094.07666,633.7257,66.19132],"min":[2090.07666,546.922241,-117.808678]},{"bufferView":71,"componentType":5126,"count":158,"type":"VEC3","byteOffset":12},{"bufferView":72,"componentType":5126,"count":158,"type":"VEC2"},{"bufferView":4,"componentType":5125,"count":300,"type":"SCALAR"},{"bufferView":73,"componentType":5126,"count":232,"type":"VEC3","max":[1456.09949,398.5677,-267.233582],"min":[1234.80164,201.4961,-315.6126]},{"bufferView":73,"componentType":5126,"count":232,"type":"VEC3","byteOffset":12},{"bufferView":74,"componentType":5126,"count":232,"type":"VEC2"},{"bufferView":5,"componentType":5125,"count":528,"type":"SCALAR"},{"bufferView":75,"componentType":5126,"count":232,"type":"VEC3","max":[1456.09949,398.5677,297.766418],"min":[1234.80164,201.4961,249.3874]},{"bufferView":75,"componentType":5126,"count":232,"type":"VEC3","byteOffset":12},{"bufferView":76,"componentType":5126,"count":232,"type":"VEC2"},{"bufferView":6,"componentType":5125,"count":528,"type":"SCALAR"},{"bufferView":77,"componentType":5126,"count":24,"type":"VEC3","max":[1353.87524,398.543152,383.268829],"min":[1337.02588,358.160583,-391.366241]},{"bufferView":77,"componentType":5126,"count":24,"type":"VEC3","byteOffset":12},{"bufferView":78,"componentType":5126,"count":24,"type":"VEC2"},{"bufferView":7,"componentType":5125,"count":36,"type":"SCALAR"},{"bufferView":79,"componentType":5126,"count":232,"type":"VEC3","max":[1699.61487,398.5677,-267.233582],"min":[1478.317,201.4961,-315.6126]},{"bufferView":79,"componentType":5126,"count":232,"type":"VEC3","byteOffset":12},{"bufferView":80,"componentType":5126,"count":232,"type":"VEC2"},{"bufferView":8,"componentType":5125,"count":528,"type":"SCALAR"},{"bufferView":81,"componentType":5126,"count":24,"type":"VEC3","max":[1597.39063,398.543152,383.268829],"min":[1580.54126,358.160583,-391.366241]},{"bufferView":81,"componentType":5126,"count":24,"type":"VEC3","byteOffset":12},{"bufferView":82,"componentType":5126,"count":24,"type":"VEC2"},{"bufferView":9,"componentType":5125,"count":36,"type":"SCALAR"},{"bufferView":59,"componentType":5126,"count":232,"type":"VEC3","max":[1699.61487,398.5677,297.766418],"min":[1478.317,201.4961,249.3874]},{"bufferView":59,"componentType":5126,"count":232,"type":"VEC3","byteOffset":12},{"bufferView":60,"componentType":5126,"count":232,"type":"VEC2"},{"bufferView":10,"componentType":5125,"count":528,"type":"SCALAR"},{"bufferView":83,"componentType":5126,"count":232,"type":"VEC3","max":[1931.11462,398.5677,-267.233582],"min":[1709.81677,201.4961,-315.6126]},{"bufferView":83,"componentType":5126,"count":232,"type":"VEC3","byteOffset":12},{"bufferView":84,"componentType":5126,"count":232,"type":"VEC2"},{"bufferView":11,"componentType":5125,"count":528,"type":"SCALAR"},{"bufferView":85,"componentType":5126,"count":232,"type":"VEC3","max":[1931.11462,398.5677,297.766418],"min":[1709.81677,201.4961,249.3874]},{"bufferView":85,"componentType":5126,"count":232,"type":"VEC3","byteOffset":12},{"bufferView":86,"componentType":5126,"count":232,"type":"VEC2"},{"bufferView":12,"componentType":5125,"count":528,"type":"SCALAR"},{"bufferView":87,"componentType":5126,"count":24,"type":"VEC3","max":[1828.89038,398.543152,383.268829],"min":[1812.041,358.160583,-391.366241]},{"bufferView":87,"componentType":5126,"count":24,"type":"VEC3","byteOffset":12},{"bufferView":88,"componentType":5126,"count":24,"type":"VEC2"},{"bufferView":13,"componentType":5125,"count":36,"type":"SCALAR"},{"bufferView":89,"componentType":5126,"count":64,"type":"VEC3","max":[2482.155,674.2577,146.006912],"min":[2073.866,646.2926,84.62807]},{"bufferView":89,"componentType":5126,"count":64,"type":"VEC3","byteOffset":12},{"bufferView":90,"componentType":5126,"count":64,"type":"VEC2"},{"bufferView":14,"componentType":5125,"count":120,"type":"SCALAR"},{"bufferView":133,"componentType":5126,"count":254,"type":"VEC3","max":[1998.06567,682.1573,-315.307861],"min":[1924.26636,575.1032,-390.24585]},{"bufferView":133,"componentType":5126,"count":254,"type":"VEC3","byteOffset":12},{"bufferView":134,"componentType":5126,"count":254,"type":"VEC2"},{"bufferView":134,"componentType":5126,"count":254,"type":"VEC2","byteOffset":8},{"bufferView":15,"componentType":5125,"count":648,"type":"SCALAR"},{"bufferView":91,"componentType":5126,"count":128,"type":"VEC3","max":[2116.62573,688.445557,141.955811],"min":[2079.178,529.318848,86.47485]},{"bufferView":91,"componentType":5126,"count":128,"type":"VEC3","byteOffset":12},{"bufferView":92,"componentType":5126,"count":128,"type":"VEC2"},{"bufferView":16,"componentType":5125,"count":312,"type":"SCALAR"},{"bufferView":93,"componentType":5126,"count":460,"type":"VEC3","max":[2152.42871,645.5906,-289.122],"min":[2110.99219,559.8179,-330.5589]},{"bufferView":93,"componentType":5126,"count":460,"type":"VEC3","byteOffset":12},{"bufferView":94,"componentType":5126,"count":460,"type":"VEC2"},{"bufferView":17,"componentType":5125,"count":1344,"type":"SCALAR"},{"bufferView":135,"componentType":5126,"count":24,"type":"VEC3","max":[2052.50879,790.051147,-483.526428],"min":[2012.85352,468.736176,-516.8005]},{"bufferView":135,"componentType":5126,"count":24,"type":"VEC3","byteOffset":12},{"bufferView":136,"componentType":5126,"count":24,"type":"VEC2"},{"bufferView":136,"componentType":5126,"count":24,"type":"VEC2","byteOffset":8},{"bufferView":18,"componentType":5125,"count":36,"type":"SCALAR"},{"bufferView":61,"componentType":5126,"count":50,"type":"VEC3","max":[2149.15723,679.9852,-169.704758],"min":[2059.15723,589.488159,-180.204758]},{"bufferView":61,"componentType":5126,"count":50,"type":"VEC3","byteOffset":12},{"bufferView":62,"componentType":5126,"count":50,"type":"VEC2"},{"bufferView":19,"componentType":5125,"count":132,"type":"SCALAR"},{"bufferView":137,"componentType":5126,"count":24,"type":"VEC3","max":[611.101868,597.2091,-789.4413],"min":[511.101868,557.796143,-1714.88489]},{"bufferView":137,"componentType":5126,"count":24,"type":"VEC3","byteOffset":12},{"bufferView":138,"componentType":5126,"count":24,"type":"VEC2"},{"bufferView":138,"componentType":5126,"count":24,"type":"VEC2","byteOffset":8},{"bufferView":20,"componentType":5125,"count":36,"type":"SCALAR"},{"bufferView":95,"componentType":5126,"count":44,"type":"VEC3","max":[2693.501,618.9421,106.668335],"min":[2497.00879,533.264465,39.41864]},{"bufferView":95,"componentType":5126,"count":44,"type":"VEC3","byteOffset":12},{"bufferView":96,"componentType":5126,"count":44,"type":"VEC2"},{"bufferView":96,"componentType":5126,"count":44,"type":"VEC2","byteOffset":8},{"bufferView":21,"componentType":5125,"count":78,"type":"SCALAR"},{"bufferView":139,"componentType":5126,"count":26,"type":"VEC3","max":[1334.86938,555.915649,-562.8699],"min":[1020.09595,552.541138,-1187.65552]},{"bufferView":139,"componentType":5126,"count":26,"type":"VEC3","byteOffset":12},{"bufferView":140,"componentType":5126,"count":26,"type":"VEC2"},{"bufferView":140,"componentType":5126,"count":26,"type":"VEC2","byteOffset":8},{"bufferView":22,"componentType":5125,"count":48,"type":"SCALAR"},{"bufferView":141,"componentType":5126,"count":78,"type":"VEC3","max":[2400.44727,675.053,-179.89325],"min":[2278.60254,523.884033,-300.8493]},{"bufferView":141,"componentType":5126,"count":78,"type":"VEC3","byteOffset":12},{"bufferView":142,"componentType":5126,"count":78,"type":"VEC2"},{"bufferView":142,"componentType":5126,"count":78,"type":"VEC2","byteOffset":8},{"bufferView":23,"componentType":5125,"count":273,"type":"SCALAR"},{"bufferView":143,"componentType":5126,"count":93,"type":"VEC3","max":[2106.63477,633.079,-282.58783],"min":[2058.1084,559.607544,-331.1136]},{"bufferView":143,"componentType":5126,"count":93,"type":"VEC3","byteOffset":12},{"bufferView":144,"componentType":5126,"count":93,"type":"VEC2"},{"bufferView":144,"componentType":5126,"count":93,"type":"VEC2","byteOffset":8},{"bufferView":24,"componentType":5125,"count":168,"type":"SCALAR"},{"bufferView":145,"componentType":5126,"count":51,"type":"VEC3","max":[2275.66943,628.5288,-286.4527],"min":[2233.942,553.9912,-330.327576]},{"bufferView":145,"componentType":5126,"count":51,"type":"VEC3","byteOffset":12},{"bufferView":146,"componentType":5126,"count":51,"type":"VEC2"},{"bufferView":146,"componentType":5126,"count":51,"type":"VEC2","byteOffset":8},{"bufferView":25,"componentType":5125,"count":90,"type":"SCALAR"},{"bufferView":97,"componentType":5126,"count":24,"type":"VEC3","max":[2444.09644,602.0062,-366.173981],"min":[2379.57251,537.4823,-430.697968]},{"bufferView":97,"componentType":5126,"count":24,"type":"VEC3","byteOffset":12},{"bufferView":98,"componentType":5126,"count":24,"type":"VEC2"},{"bufferView":98,"componentType":5126,"count":24,"type":"VEC2","byteOffset":8},{"bufferView":26,"componentType":5125,"count":36,"type":"SCALAR"},{"bufferView":99,"componentType":5126,"count":72,"type":"VEC3","max":[2734.38281,618.1858,4.04933167],"min":[2490.86621,537.0137,-56.8297577]},{"bufferView":99,"componentType":5126,"count":72,"type":"VEC3","byteOffset":12},{"bufferView":100,"componentType":5126,"count":72,"type":"VEC2"},{"bufferView":27,"componentType":5125,"count":132,"type":"SCALAR"},{"bufferView":101,"componentType":5126,"count":72,"type":"VEC3","max":[2734.38281,618.1858,-131.075623],"min":[2490.86621,537.0137,-191.954712]},{"bufferView":101,"componentType":5126,"count":72,"type":"VEC3","byteOffset":12},{"bufferView":102,"componentType":5126,"count":72,"type":"VEC2"},{"bufferView":28,"componentType":5125,"count":132,"type":"SCALAR"},{"bufferView":103,"componentType":5126,"count":72,"type":"VEC3","max":[2734.38281,618.1858,-272.7628],"min":[2490.86621,537.0137,-333.641876]},{"bufferView":103,"componentType":5126,"count":72,"type":"VEC3","byteOffset":12},{"bufferView":104,"componentType":5126,"count":72,"type":"VEC2"},{"bufferView":29,"componentType":5125,"count":132,"type":"SCALAR"},{"bufferView":105,"componentType":5126,"count":72,"type":"VEC3","max":[2734.38281,618.1858,-400.615356],"min":[2490.86621,537.0137,-461.494446]},{"bufferView":105,"componentType":5126,"count":72,"type":"VEC3","byteOffset":12},{"bufferView":106,"componentType":5126,"count":72,"type":"VEC2"},{"bufferView":30,"componentType":5125,"count":132,"type":"SCALAR"},{"bufferView":147,"componentType":5126,"count":26,"type":"VEC3","max":[987.419556,555.915649,-562.8699],"min":[672.6461,552.541138,-1187.65552]},{"bufferView":147,"componentType":5126,"count":26,"type":"VEC3","byteOffset":12},{"bufferView":148,"componentType":5126,"count":26,"type":"VEC2"},{"bufferView":148,"componentType":5126,"count":26,"type":"VEC2","byteOffset":8},{"bufferView":31,"componentType":5125,"count":48,"type":"SCALAR"},{"bufferView":107,"componentType":5126,"count":26,"type":"VEC3","max":[1697.70142,555.915649,-562.8699],"min":[1382.928,552.541138,-1187.65552]},{"bufferView":107,"componentType":5126,"count":26,"type":"VEC3","byteOffset":12},{"bufferView":108,"componentType":5126,"count":26,"type":"VEC2"},{"bufferView":108,"componentType":5126,"count":26,"type":"VEC2","byteOffset":8},{"bufferView":0,"componentType":5125,"count":48,"type":"SCALAR"},{"bufferView":149,"componentType":5126,"count":26,"type":"VEC3","max":[2062.56836,555.915649,-562.8699],"min":[1747.79492,552.541138,-1187.65552]},{"bufferView":149,"componentType":5126,"count":26,"type":"VEC3","byteOffset":12},{"bufferView":150,"componentType":5126,"count":26,"type":"VEC2"},{"bufferView":150,"componentType":5126,"count":26,"type":"VEC2","byteOffset":8},{"bufferView":32,"componentType":5125,"count":48,"type":"SCALAR"},{"bufferView":151,"componentType":5126,"count":26,"type":"VEC3","max":[2422.77539,555.915649,-562.8699],"min":[2108.002,552.541138,-1187.65552]},{"bufferView":151,"componentType":5126,"count":26,"type":"VEC3","byteOffset":12},{"bufferView":152,"componentType":5126,"count":26,"type":"VEC2"},{"bufferView":152,"componentType":5126,"count":26,"type":"VEC2","byteOffset":8},{"bufferView":33,"componentType":5125,"count":48,"type":"SCALAR"},{"bufferView":153,"componentType":5126,"count":26,"type":"VEC3","max":[2773.266,555.915649,-562.8699],"min":[2458.49268,552.541138,-1187.65552]},{"bufferView":153,"componentType":5126,"count":26,"type":"VEC3","byteOffset":12},{"bufferView":154,"componentType":5126,"count":26,"type":"VEC2"},{"bufferView":154,"componentType":5126,"count":26,"type":"VEC2","byteOffset":8},{"bufferView":34,"componentType":5125,"count":48,"type":"SCALAR"},{"bufferView":109,"componentType":5126,"count":254,"type":"VEC3","max":[1985.93567,682.1573,-127.392929],"min":[1912.1366,575.1032,-202.330948]},{"bufferView":109,"componentType":5126,"count":254,"type":"VEC3","byteOffset":12},{"bufferView":110,"componentType":5126,"count":254,"type":"VEC2"},{"bufferView":110,"componentType":5126,"count":254,"type":"VEC2","byteOffset":8},{"bufferView":35,"componentType":5125,"count":648,"type":"SCALAR"},{"bufferView":155,"componentType":5126,"count":254,"type":"VEC3","max":[1985.93567,682.1573,-222.832336],"min":[1912.1366,575.1032,-297.770325]},{"bufferView":155,"componentType":5126,"count":254,"type":"VEC3","byteOffset":12},{"bufferView":156,"componentType":5126,"count":254,"type":"VEC2"},{"bufferView":156,"componentType":5126,"count":254,"type":"VEC2","byteOffset":8},{"bufferView":36,"componentType":5125,"count":648,"type":"SCALAR"},{"bufferView":157,"componentType":5126,"count":254,"type":"VEC3","max":[1985.93567,682.1573,-37.1768036],"min":[1912.1366,575.1032,-112.114822]},{"bufferView":157,"componentType":5126,"count":254,"type":"VEC3","byteOffset":12},{"bufferView":158,"componentType":5126,"count":254,"type":"VEC2"},{"bufferView":158,"componentType":5126,"count":254,"type":"VEC2","byteOffset":8},{"bufferView":37,"componentType":5125,"count":648,"type":"SCALAR"},{"bufferView":159,"componentType":5126,"count":254,"type":"VEC3","max":[1985.93567,682.1573,57.43856],"min":[1912.1366,575.1032,-17.4994583]},{"bufferView":159,"componentType":5126,"count":254,"type":"VEC3","byteOffset":12},{"bufferView":160,"componentType":5126,"count":254,"type":"VEC2"},{"bufferView":160,"componentType":5126,"count":254,"type":"VEC2","byteOffset":8},{"bufferView":38,"componentType":5125,"count":648,"type":"SCALAR"},{"bufferView":161,"componentType":5126,"count":24,"type":"VEC3","max":[2355.498,602.0062,-366.173981],"min":[2290.97363,537.4823,-430.697968]},{"bufferView":161,"componentType":5126,"count":24,"type":"VEC3","byteOffset":12},{"bufferView":162,"componentType":5126,"count":24,"type":"VEC2"},{"bufferView":162,"componentType":5126,"count":24,"type":"VEC2","byteOffset":8},{"bufferView":39,"componentType":5125,"count":36,"type":"SCALAR"},{"bufferView":163,"componentType":5126,"count":24,"type":"VEC3","max":[2276.47168,602.0062,-366.173981],"min":[2156.25586,537.4823,-430.697968]},{"bufferView":163,"componentType":5126,"count":24,"type":"VEC3","byteOffset":12},{"bufferView":164,"componentType":5126,"count":24,"type":"VEC2"},{"bufferView":164,"componentType":5126,"count":24,"type":"VEC2","byteOffset":8},{"bufferView":40,"componentType":5125,"count":36,"type":"SCALAR"},{"bufferView":165,"componentType":5126,"count":24,"type":"VEC3","max":[2146.16943,602.0062,-366.173981],"min":[2081.645,537.4823,-430.697968]},{"bufferView":165,"componentType":5126,"count":24,"type":"VEC3","byteOffset":12},{"bufferView":166,"componentType":5126,"count":24,"type":"VEC2"},{"bufferView":166,"componentType":5126,"count":24,"type":"VEC2","byteOffset":8},{"bufferView":41,"componentType":5125,"count":36,"type":"SCALAR"},{"bufferView":167,"componentType":5126,"count":40,"type":"VEC3","max":[1557.02173,570.4623,-1264.93872],"min":[1300.0354,567.0875,-1714.9397]},{"bufferView":167,"componentType":5126,"count":40,"type":"VEC3","byteOffset":12},{"bufferView":168,"componentType":5126,"count":40,"type":"VEC2"},{"bufferView":168,"componentType":5126,"count":40,"type":"VEC2","byteOffset":8},{"bufferView":42,"componentType":5125,"count":66,"type":"SCALAR"},{"bufferView":169,"componentType":5126,"count":40,"type":"VEC3","max":[941.284668,570.4623,-1264.93872],"min":[684.2986,567.0875,-1714.9397]},{"bufferView":169,"componentType":5126,"count":40,"type":"VEC3","byteOffset":12},{"bufferView":170,"componentType":5126,"count":40,"type":"VEC2"},{"bufferView":170,"componentType":5126,"count":40,"type":"VEC2","byteOffset":8},{"bufferView":43,"componentType":5125,"count":66,"type":"SCALAR"},{"bufferView":111,"componentType":5126,"count":40,"type":"VEC3","max":[1269.37964,570.4623,-1264.93872],"min":[1012.39355,567.0875,-1714.9397]},{"bufferView":111,"componentType":5126,"count":40,"type":"VEC3","byteOffset":12},{"bufferView":112,"componentType":5126,"count":40,"type":"VEC2"},{"bufferView":112,"componentType":5126,"count":40,"type":"VEC2","byteOffset":8},{"bufferView":44,"componentType":5125,"count":66,"type":"SCALAR"},{"bufferView":171,"componentType":5126,"count":78,"type":"VEC3","max":[2400.44727,675.053,-35.05356],"min":[2278.60254,523.884033,-156.009644]},{"bufferView":171,"componentType":5126,"count":78,"type":"VEC3","byteOffset":12},{"bufferView":172,"componentType":5126,"count":78,"type":"VEC2"},{"bufferView":172,"componentType":5126,"count":78,"type":"VEC2","byteOffset":8},{"bufferView":45,"componentType":5125,"count":273,"type":"SCALAR"},{"bufferView":63,"componentType":5126,"count":460,"type":"VEC3","max":[2225.21387,645.5906,-289.122],"min":[2183.77734,559.8179,-330.5589]},{"bufferView":63,"componentType":5126,"count":460,"type":"VEC3","byteOffset":12},{"bufferView":64,"componentType":5126,"count":460,"type":"VEC2"},{"bufferView":46,"componentType":5125,"count":1344,"type":"SCALAR"},{"bufferView":173,"componentType":5126,"count":24,"type":"VEC3","max":[506.664337,597.2091,-399.112854],"min":[-122.06369,557.796143,-2105.21338]},{"bufferView":173,"componentType":5126,"count":24,"type":"VEC3","byteOffset":12},{"bufferView":174,"componentType":5126,"count":24,"type":"VEC2"},{"bufferView":174,"componentType":5126,"count":24,"type":"VEC2","byteOffset":8},{"bufferView":47,"componentType":5125,"count":36,"type":"SCALAR"},{"bufferView":175,"componentType":5126,"count":93,"type":"VEC3","max":[2050.63159,633.079,-282.58783],"min":[2002.10547,559.607544,-331.1136]},{"bufferView":175,"componentType":5126,"count":93,"type":"VEC3","byteOffset":12},{"bufferView":176,"componentType":5126,"count":93,"type":"VEC2"},{"bufferView":176,"componentType":5126,"count":93,"type":"VEC2","byteOffset":8},{"bufferView":48,"componentType":5125,"count":168,"type":"SCALAR"},{"bufferView":113,"componentType":5126,"count":24,"type":"VEC3","max":[2236.70068,615.740234,-1293.24292],"min":[2035.85547,414.895264,-1913.45264]},{"bufferView":113,"componentType":5126,"count":24,"type":"VEC3","byteOffset":12},{"bufferView":114,"componentType":5126,"count":24,"type":"VEC2"},{"bufferView":49,"componentType":5125,"count":36,"type":"SCALAR"},{"bufferView":115,"componentType":5126,"count":24,"type":"VEC3","max":[1921.68921,615.740234,-1293.24292],"min":[1720.84424,414.895233,-1913.45264]},{"bufferView":115,"componentType":5126,"count":24,"type":"VEC3","byteOffset":12},{"bufferView":116,"componentType":5126,"count":24,"type":"VEC2"},{"bufferView":50,"componentType":5125,"count":36,"type":"SCALAR"},{"bufferView":117,"componentType":5126,"count":24,"type":"VEC3","max":[2500.19653,615.740234,-1293.24292],"min":[2299.35132,414.895233,-1913.45264]},{"bufferView":117,"componentType":5126,"count":24,"type":"VEC3","byteOffset":12},{"bufferView":118,"componentType":5126,"count":24,"type":"VEC2"},{"bufferView":51,"componentType":5125,"count":36,"type":"SCALAR"},{"bufferView":65,"componentType":5126,"count":24,"type":"VEC3","max":[2748.78076,615.740234,-1293.24292],"min":[2547.936,414.895233,-1913.45264]},{"bufferView":65,"componentType":5126,"count":24,"type":"VEC3","byteOffset":12},{"bufferView":66,"componentType":5126,"count":24,"type":"VEC2"},{"bufferView":52,"componentType":5125,"count":36,"type":"SCALAR"},{"bufferView":119,"componentType":5126,"count":62,"type":"VEC3","max":[2775.35547,566.2454,-521.29425],"min":[2458.84033,546.5057,-542.049866]},{"bufferView":119,"componentType":5126,"count":62,"type":"VEC3","byteOffset":12},{"bufferView":120,"componentType":5126,"count":62,"type":"VEC2"},{"bufferView":53,"componentType":5125,"count":120,"type":"SCALAR"},{"bufferView":121,"componentType":5126,"count":62,"type":"VEC3","max":[2775.35547,566.2454,-483.4041],"min":[2458.84033,546.5057,-504.159729]},{"bufferView":121,"componentType":5126,"count":62,"type":"VEC3","byteOffset":12},{"bufferView":122,"componentType":5126,"count":62,"type":"VEC2"},{"bufferView":54,"componentType":5125,"count":120,"type":"SCALAR"},{"bufferView":123,"componentType":5126,"count":62,"type":"VEC3","max":[2433.55249,566.2454,-529.5796],"min":[2117.03735,546.5057,-550.3352]},{"bufferView":123,"componentType":5126,"count":62,"type":"VEC3","byteOffset":12},{"bufferView":124,"componentType":5126,"count":62,"type":"VEC2"},{"bufferView":55,"componentType":5125,"count":120,"type":"SCALAR"},{"bufferView":125,"componentType":5126,"count":62,"type":"VEC3","max":[2433.55249,566.2454,-479.226349],"min":[2117.03735,546.5057,-499.9819]},{"bufferView":125,"componentType":5126,"count":62,"type":"VEC3","byteOffset":12},{"bufferView":126,"componentType":5126,"count":62,"type":"VEC2"},{"bufferView":56,"componentType":5125,"count":120,"type":"SCALAR"},{"bufferView":127,"componentType":5126,"count":84,"type":"VEC3","max":[2133.95337,588.457031,-205.707428],"min":[2104.97144,586.785034,-234.689545]},{"bufferView":127,"componentType":5126,"count":84,"type":"VEC3","byteOffset":12},{"bufferView":128,"componentType":5126,"count":84,"type":"VEC2"},{"bufferView":57,"componentType":5125,"count":240,"type":"SCALAR"},{"bufferView":129,"componentType":5126,"count":144,"type":"VEC3","max":[2133.12769,659.1145,-205.693115],"min":[2105.51782,587.3384,-234.900146]},{"bufferView":129,"componentType":5126,"count":144,"type":"VEC3","byteOffset":12},{"bufferView":130,"componentType":5126,"count":144,"type":"VEC2"},{"bufferView":58,"componentType":5125,"count":414,"type":"SCALAR"}],"images":[{"name":"assets.png","uri":"assets.png","mimeType":"image/png"}],"materials":[{"name":"lambert2","pbrMetallicRoughness":{"metallicFactor":0,"roughnessFactor":0.6,"baseColorTexture":{"index":0}},"doubleSided":true}],"meshes":[{"name":"ramp_02_lambert2_0","primitives":[{"attributes":{"POSITION":0,"NORMAL":1,"TEXCOORD_0":2,"TEXCOORD_1":3},"indices":4,"material":0}]},{"name":"Bollard_lambert2_0","primitives":[{"attributes":{"POSITION":5,"NORMAL":6,"TEXCOORD_0":7},"indices":8,"material":0}]},{"name":"Tire_lambert2_0","primitives":[{"attributes":{"POSITION":9,"NORMAL":10,"TEXCOORD_0":11},"indices":12,"material":0}]},{"name":"Barrier_Plastic_lambert2_0","primitives":[{"attributes":{"POSITION":13,"NORMAL":14,"TEXCOORD_0":15},"indices":16,"material":0}]},{"name":"kw_barriers_stand_white__1_2_lambert2_0","primitives":[{"attributes":{"POSITION":17,"NORMAL":18,"TEXCOORD_0":19},"indices":20,"material":0}]},{"name":"kw_barriers_stand_white2_lambert2_0","primitives":[{"attributes":{"POSITION":21,"NORMAL":22,"TEXCOORD_0":23},"indices":24,"material":0}]},{"name":"kw_barriers_rod2_lambert2_0","primitives":[{"attributes":{"POSITION":25,"NORMAL":26,"TEXCOORD_0":27},"indices":28,"material":0}]},{"name":"kw_barriers_stand_white__1_1_lambert2_0","primitives":[{"attributes":{"POSITION":29,"NORMAL":30,"TEXCOORD_0":31},"indices":32,"material":0}]},{"name":"kw_barriers_rod1_lambert2_0","primitives":[{"attributes":{"POSITION":33,"NORMAL":34,"TEXCOORD_0":35},"indices":36,"material":0}]},{"name":"kw_barriers_stand_white1_lambert2_0","primitives":[{"attributes":{"POSITION":37,"NORMAL":38,"TEXCOORD_0":39},"indices":40,"material":0}]},{"name":"kw_barriers_stand_white__1__lambert2_0","primitives":[{"attributes":{"POSITION":41,"NORMAL":42,"TEXCOORD_0":43},"indices":44,"material":0}]},{"name":"kw_barriers_stand_white_lambert2_0","primitives":[{"attributes":{"POSITION":45,"NORMAL":46,"TEXCOORD_0":47},"indices":48,"material":0}]},{"name":"kw_barriers_rod_lambert2_0","primitives":[{"attributes":{"POSITION":49,"NORMAL":50,"TEXCOORD_0":51},"indices":52,"material":0}]},{"name":"Cylinder_lambert2_0","primitives":[{"attributes":{"POSITION":53,"NORMAL":54,"TEXCOORD_0":55},"indices":56,"material":0}]},{"name":"Barrel1__4__lambert2_0","primitives":[{"attributes":{"POSITION":57,"NORMAL":58,"TEXCOORD_0":59,"TEXCOORD_1":60},"indices":61,"material":0}]},{"name":"Cube_001_lambert2_0","primitives":[{"attributes":{"POSITION":62,"NORMAL":63,"TEXCOORD_0":64},"indices":65,"material":0}]},{"name":"objPylon__44__lambert2_0","primitives":[{"attributes":{"POSITION":66,"NORMAL":67,"TEXCOORD_0":68},"indices":69,"material":0}]},{"name":"side_bar__12__lambert2_0","primitives":[{"attributes":{"POSITION":70,"NORMAL":71,"TEXCOORD_0":72,"TEXCOORD_1":73},"indices":74,"material":0}]},{"name":"Coin__1__lambert2_0","primitives":[{"attributes":{"POSITION":75,"NORMAL":76,"TEXCOORD_0":77},"indices":78,"material":0}]},{"name":"_2__9__lambert2_0","primitives":[{"attributes":{"POSITION":79,"NORMAL":80,"TEXCOORD_0":81,"TEXCOORD_1":82},"indices":83,"material":0}]},{"name":"Barrier_lambert2_0","primitives":[{"attributes":{"POSITION":84,"NORMAL":85,"TEXCOORD_0":86,"TEXCOORD_1":87},"indices":88,"material":0}]},{"name":"ramp_04_lambert2_0","primitives":[{"attributes":{"POSITION":89,"NORMAL":90,"TEXCOORD_0":91,"TEXCOORD_1":92},"indices":93,"material":0}]},{"name":"dhool_lambert2_0","primitives":[{"attributes":{"POSITION":94,"NORMAL":95,"TEXCOORD_0":96,"TEXCOORD_1":97},"indices":98,"material":0}]},{"name":"cone_02_lambert2_0","primitives":[{"attributes":{"POSITION":99,"NORMAL":100,"TEXCOORD_0":101,"TEXCOORD_1":102},"indices":103,"material":0}]},{"name":"cone_04_lambert2_0","primitives":[{"attributes":{"POSITION":104,"NORMAL":105,"TEXCOORD_0":106,"TEXCOORD_1":107},"indices":108,"material":0}]},{"name":"crate_02_lambert2_0","primitives":[{"attributes":{"POSITION":109,"NORMAL":110,"TEXCOORD_0":111,"TEXCOORD_1":112},"indices":113,"material":0}]},{"name":"Barricada_Concreto__5_lambert2_0","primitives":[{"attributes":{"POSITION":114,"NORMAL":115,"TEXCOORD_0":116},"indices":117,"material":0}]},{"name":"Barricada_Concreto__6_lambert2_0","primitives":[{"attributes":{"POSITION":118,"NORMAL":119,"TEXCOORD_0":120},"indices":121,"material":0}]},{"name":"Barricada_Concreto__7_lambert2_0","primitives":[{"attributes":{"POSITION":122,"NORMAL":123,"TEXCOORD_0":124},"indices":125,"material":0}]},{"name":"Barricada_Concreto__8_lambert2_0","primitives":[{"attributes":{"POSITION":126,"NORMAL":127,"TEXCOORD_0":128},"indices":129,"material":0}]},{"name":"ramp_05_lambert2_0","primitives":[{"attributes":{"POSITION":130,"NORMAL":131,"TEXCOORD_0":132,"TEXCOORD_1":133},"indices":134,"material":0}]},{"name":"ramp_06_lambert2_0","primitives":[{"attributes":{"POSITION":135,"NORMAL":136,"TEXCOORD_0":137,"TEXCOORD_1":138},"indices":139,"material":0}]},{"name":"ramp_07_lambert2_0","primitives":[{"attributes":{"POSITION":140,"NORMAL":141,"TEXCOORD_0":142,"TEXCOORD_1":143},"indices":144,"material":0}]},{"name":"ramp_08_lambert2_0","primitives":[{"attributes":{"POSITION":145,"NORMAL":146,"TEXCOORD_0":147,"TEXCOORD_1":148},"indices":149,"material":0}]},{"name":"ramp_09_lambert2_0","primitives":[{"attributes":{"POSITION":150,"NORMAL":151,"TEXCOORD_0":152,"TEXCOORD_1":153},"indices":154,"material":0}]},{"name":"Barrel1__4_1_lambert2_0","primitives":[{"attributes":{"POSITION":155,"NORMAL":156,"TEXCOORD_0":157,"TEXCOORD_1":158},"indices":159,"material":0}]},{"name":"Barrel1__4_2_lambert2_0","primitives":[{"attributes":{"POSITION":160,"NORMAL":161,"TEXCOORD_0":162,"TEXCOORD_1":163},"indices":164,"material":0}]},{"name":"Barrel1__4_3_lambert2_0","primitives":[{"attributes":{"POSITION":165,"NORMAL":166,"TEXCOORD_0":167,"TEXCOORD_1":168},"indices":169,"material":0}]},{"name":"Barrel1__4_4_lambert2_0","primitives":[{"attributes":{"POSITION":170,"NORMAL":171,"TEXCOORD_0":172,"TEXCOORD_1":173},"indices":174,"material":0}]},{"name":"crate_03_lambert2_0","primitives":[{"attributes":{"POSITION":175,"NORMAL":176,"TEXCOORD_0":177,"TEXCOORD_1":178},"indices":179,"material":0}]},{"name":"crate_04_lambert2_0","primitives":[{"attributes":{"POSITION":180,"NORMAL":181,"TEXCOORD_0":182,"TEXCOORD_1":183},"indices":184,"material":0}]},{"name":"crate_05_lambert2_0","primitives":[{"attributes":{"POSITION":185,"NORMAL":186,"TEXCOORD_0":187,"TEXCOORD_1":188},"indices":189,"material":0}]},{"name":"ramp_012_lambert2_0","primitives":[{"attributes":{"POSITION":190,"NORMAL":191,"TEXCOORD_0":192,"TEXCOORD_1":193},"indices":194,"material":0}]},{"name":"ramp_010_lambert2_0","primitives":[{"attributes":{"POSITION":195,"NORMAL":196,"TEXCOORD_0":197,"TEXCOORD_1":198},"indices":199,"material":0}]},{"name":"ramp_011_lambert2_0","primitives":[{"attributes":{"POSITION":200,"NORMAL":201,"TEXCOORD_0":202,"TEXCOORD_1":203},"indices":204,"material":0}]},{"name":"dhool1_lambert2_0","primitives":[{"attributes":{"POSITION":205,"NORMAL":206,"TEXCOORD_0":207,"TEXCOORD_1":208},"indices":209,"material":0}]},{"name":"objPylon__44_1_lambert2_0","primitives":[{"attributes":{"POSITION":210,"NORMAL":211,"TEXCOORD_0":212},"indices":213,"material":0}]},{"name":"_2__9_1_lambert2_0","primitives":[{"attributes":{"POSITION":214,"NORMAL":215,"TEXCOORD_0":216,"TEXCOORD_1":217},"indices":218,"material":0}]},{"name":"cone_05_lambert2_0","primitives":[{"attributes":{"POSITION":219,"NORMAL":220,"TEXCOORD_0":221,"TEXCOORD_1":222},"indices":223,"material":0}]},{"name":"CONTAINER_YELLOW_lambert2_0","primitives":[{"attributes":{"POSITION":224,"NORMAL":225,"TEXCOORD_0":226},"indices":227,"material":0}]},{"name":"CONTAINER_ORANGE_lambert2_0","primitives":[{"attributes":{"POSITION":228,"NORMAL":229,"TEXCOORD_0":230},"indices":231,"material":0}]},{"name":"CONTAINER_BLUE_lambert2_0","primitives":[{"attributes":{"POSITION":232,"NORMAL":233,"TEXCOORD_0":234},"indices":235,"material":0}]},{"name":"CONTAINER_GREEN_lambert2_0","primitives":[{"attributes":{"POSITION":236,"NORMAL":237,"TEXCOORD_0":238},"indices":239,"material":0}]},{"name":"SPEEDBRKR_1_lambert2_0","primitives":[{"attributes":{"POSITION":240,"NORMAL":241,"TEXCOORD_0":242},"indices":243,"material":0}]},{"name":"SPEEDBRKR_2_lambert2_0","primitives":[{"attributes":{"POSITION":244,"NORMAL":245,"TEXCOORD_0":246},"indices":247,"material":0}]},{"name":"SPEEDBRKR_3_lambert2_0","primitives":[{"attributes":{"POSITION":248,"NORMAL":249,"TEXCOORD_0":250},"indices":251,"material":0}]},{"name":"SPEEDBRKR_4_lambert2_0","primitives":[{"attributes":{"POSITION":252,"NORMAL":253,"TEXCOORD_0":254},"indices":255,"material":0}]},{"name":"OBS_UP_BACE_lambert2_0","primitives":[{"attributes":{"POSITION":256,"NORMAL":257,"TEXCOORD_0":258},"indices":259,"material":0}]},{"name":"OBE_UP_lambert2_0","primitives":[{"attributes":{"POSITION":260,"NORMAL":261,"TEXCOORD_0":262},"indices":263,"material":0}]}],"samplers":[{"minFilter":9987}],"scene":0,"scenes":[{"name":"assets","nodes":[120]}],"textures":[{"source":0,"sampler":0}]}